<svg width="134" height="76" viewBox="0 0 134 76" fill="none" xmlns="http://www.w3.org/2000/svg">
    <path d="M67 75.616a44.924 44.924 0 0 1-17.344-3.715c-5.91-2.626-9.77-6.207-10.875-10.091l-.205-.722-.454.591c-1.836 2.376-5.099 3.792-8.706 3.792-10.709 0-14.733-7.742-18.624-15.23-2.866-5.512-5.375-9.838-9.391-11.174a.962.962 0 0 1-.649-.913c0-.415.261-.782.649-.914 4.016-1.336 6.525-5.662 9.39-11.17 3.873-7.504 7.897-15.246 18.606-15.246 3.63 0 6.889 1.417 8.706 3.793l.454.59.205-.72c1.105-3.885 4.966-7.47 10.875-10.096A44.917 44.917 0 0 1 67 .68a44.918 44.918 0 0 1 17.344 3.712c5.91 2.626 9.77 6.21 10.876 10.095l.204.722.454-.591c1.836-2.376 5.099-3.793 8.706-3.793 10.709 0 14.733 7.742 18.624 15.231 2.843 5.393 5.288 9.642 9.149 11.081l.261.085c.389.13.651.497.651.912a.958.958 0 0 1-.651.911c-4.016 1.34-6.526 5.662-9.391 11.174-3.891 7.488-7.915 15.234-18.624 15.234-3.626 0-6.889-1.416-8.706-3.792l-.454-.591-.205.721c-1.105 3.885-4.966 7.47-10.875 10.095A44.99 44.99 0 0 1 67 75.616z" fill="#fff"/>
    <path d="m75.108 70.024-.575-.188c-2.385-.787-4.853-1.6-7.533-1.6-2.68 0-5.148.813-7.533 1.6l-.575.188a.499.499 0 0 0-.34.502.497.497 0 0 0 .393.461 38.163 38.163 0 0 0 16.11 0 .497.497 0 0 0 .392-.46.499.499 0 0 0-.339-.503zM58.945 5.63a.503.503 0 0 0-.038.963l.575.19c2.385.767 4.853 1.596 7.533 1.596 2.68 0 5.148-.814 7.533-1.597l.575-.188a.502.502 0 0 0-.038-.963 37.999 37.999 0 0 0-16.11 0h-.03zM101.068 60.816c.045.15.155.271.299.33a8.902 8.902 0 0 0 3.255.56c8.373 0 11.693-6.383 15.202-13.143 1.753-3.373 3.74-7.197 6.507-9.895a.52.52 0 0 0 .148-.36.501.501 0 0 0-.148-.358c-2.767-2.687-4.754-6.525-6.507-9.899-3.509-6.755-6.814-13.139-15.202-13.139a8.902 8.902 0 0 0-3.255.56.498.498 0 0 0-.216.765c.443.595.68 1.322.674 2.069 0 1.907-1.525 3.454-3.407 3.454-1.881 0-3.407-1.547-3.407-3.455.002-.168.016-.336.042-.502-.32 1.771-1.93 2.995-3.696 2.813-1.767-.183-3.1-1.711-3.06-3.512a3.43 3.43 0 0 1 1.846-3.07.498.498 0 0 0 .17-.745 14.773 14.773 0 0 0-4.386-3.693 8.29 8.29 0 0 0-3.933-.956c-2.086 0-4.183.691-6.405 1.42-2.532.841-5.371 1.782-8.589 1.782s-6.056-.94-8.589-1.77c-2.222-.73-4.319-1.42-6.405-1.42a8.29 8.29 0 0 0-3.933.944 14.775 14.775 0 0 0-4.368 3.693.512.512 0 0 0-.087.41.498.498 0 0 0 .258.334 3.43 3.43 0 0 1 1.847 3.071c.038 1.8-1.294 3.329-3.06 3.512-1.767.182-3.376-1.042-3.697-2.813.026.166.04.334.042.502 0 1.908-1.526 3.455-3.407 3.455-1.882 0-3.407-1.547-3.407-3.455a3.416 3.416 0 0 1 .685-2.068.5.5 0 0 0 .084-.438.5.5 0 0 0-.3-.326 8.887 8.887 0 0 0-3.255-.56c-8.373 0-11.693 6.383-15.202 13.138-1.752 3.374-3.74 7.197-6.507 9.9a.514.514 0 0 0 0 .718c2.767 2.686 4.755 6.524 6.507 9.894 3.51 6.76 6.814 13.143 15.202 13.143a8.89 8.89 0 0 0 3.255-.56.516.516 0 0 0 .3-.33.505.505 0 0 0-.084-.438 3.409 3.409 0 0 1-.704-2.069c0-1.908 1.525-3.454 3.407-3.454 1.881 0 3.407 1.546 3.407 3.454-.002.17-.016.34-.042.507.32-1.572 1.667-2.713 3.25-2.754 1.583-.04 2.984 1.03 3.383 2.584a3.472 3.472 0 0 1-1.712 3.928.49.49 0 0 0-.258.33.52.52 0 0 0 .088.414 14.768 14.768 0 0 0 4.375 3.689 8.291 8.291 0 0 0 3.933.956c2.086 0 4.183-.687 6.405-1.42 2.521-.83 5.371-1.766 8.589-1.766s6.056.936 8.589 1.765c2.222.734 4.319 1.42 6.405 1.42a8.29 8.29 0 0 0 3.933-.955 14.766 14.766 0 0 0 4.368-3.673.52.52 0 0 0 .087-.415.49.49 0 0 0-.258-.33 3.438 3.438 0 0 1-1.847-3.07c-.038-1.801 1.294-3.33 3.06-3.512 1.767-.183 3.376 1.041 3.697 2.813a3.595 3.595 0 0 1-.042-.507c0-1.908 1.526-3.455 3.407-3.455 1.882 0 3.407 1.547 3.407 3.455a3.405 3.405 0 0 1-.685 2.069.504.504 0 0 0-.053.434z" fill="#E7002A"/>
    <path d="M38.966 58.827c0 .058 0 .111-.026.18a.175.175 0 0 0 0 .043 2.19 2.19 0 0 1 .026-.223zM95.06 59.008c0-.07 0-.123-.026-.18a2.1 2.1 0 0 1 .023.222.146.146 0 0 0 .004-.042zM38.94 17.61c0 .066 0 .12.026.181a2.292 2.292 0 0 1-.023-.227.237.237 0 0 0-.003.047zM95.034 17.791c0-.061 0-.115.026-.18a.175.175 0 0 0 0-.043 2.162 2.162 0 0 1-.026.223z" fill="#E7002A"/>
    <path d="m18.223 48.817 1.745-2.161V28.569l-1.783-2.21h12.904v6.709l-2.65-3.524h-3.93v7.07h2.124l1.988-2.015v6.426l-1.988-2.015H24.51v7.646l1.756 2.16h-8.043z" fill="#231F20"/>
    <path fill-rule="evenodd" clip-rule="evenodd" d="M18.223 49.638h8.047v-.004a.81.81 0 0 0 .729-.473.83.83 0 0 0-.108-.87l-1.575-1.92v-6.525h.98l1.757 1.781c.232.231.577.3.878.177a.822.822 0 0 0 .5-.768v-6.425a.81.81 0 0 0-1.382-.591l-1.752 1.777h-.98v-5.443h2.72l2.408 3.201a.818.818 0 0 0 .901.28.82.82 0 0 0 .549-.767v-6.706a.823.823 0 0 0-.235-.58.8.8 0 0 0-.571-.241h-12.92a.806.806 0 0 0-.71.472.827.827 0 0 0 .101.856l1.601 1.992v17.518l-1.563 1.92a.815.815 0 0 0-.106.867.81.81 0 0 0 .73.472zM24.552 48H19.93l.666-.817a.83.83 0 0 0 .182-.519V28.577a.821.821 0 0 0-.182-.518l-.7-.872h10.386v3.455l-1.2-1.581a.806.806 0 0 0-.643-.323h-3.93a.8.8 0 0 0-.572.238.824.824 0 0 0-.237.58v7.058c0 .454.363.822.81.822h2.123a.8.8 0 0 0 .572-.238l.61-.618v2.468l-.614-.618a.801.801 0 0 0-.568-.242H24.51a.816.816 0 0 0-.81.822v7.646c0 .191.065.377.185.526l.666.817z" fill="#231F20"/>
    <path d="M28.439 29.544h-3.93v7.07h1.42v-5.63h3.593l-1.083-1.44z" fill="#231F20"/>
    <path fill-rule="evenodd" clip-rule="evenodd" d="M24.51 37.436h1.416a.8.8 0 0 0 .574-.24.823.823 0 0 0 .236-.581V31.8h2.79a.81.81 0 0 0 .71-.455.831.831 0 0 0-.07-.85l-1.084-1.44a.806.806 0 0 0-.643-.322h-3.93a.816.816 0 0 0-.81.822v7.059c0 .453.363.821.81.821zm.806-6.994v-.08h.083l-.083.08z" fill="#231F20"/>
    <path d="M25.93 40.449h2.123l-1.42-1.44H24.51v7.647l1.756 2.16h-8.043l1.419 1.44h8.044l-1.757-2.161v-7.646z" fill="#231F20"/>
    <path fill-rule="evenodd" clip-rule="evenodd" d="M19.642 51.078h8.044v-.024a.81.81 0 0 0 .732-.47.83.83 0 0 0-.108-.873l-1.574-1.92v-6.524h1.317a.81.81 0 0 0 .746-.508.83.83 0 0 0-.174-.893l-1.42-1.436a.8.8 0 0 0-.572-.242H24.51a.816.816 0 0 0-.81.822v7.646c0 .191.065.377.185.526l.666.817h-6.328a.806.806 0 0 0-.748.504.826.826 0 0 0 .176.893l1.42 1.444a.823.823 0 0 0 .571.237zm5.674-11.159v-.092l.08.012-.08.08z" fill="#231F20"/>
    <path d="m31.089 33.068 1.42 1.44v-6.71l-1.42-1.44v6.71z" fill="#231F20"/>
    <path d="M32.508 35.313a.808.808 0 0 1-.575-.242l-1.416-1.439a.83.83 0 0 1-.235-.564v-6.706a.822.822 0 0 1 .5-.767.817.817 0 0 1 .882.176l1.42 1.44c.15.157.231.368.227.587v6.71a.826.826 0 0 1-.5.767.858.858 0 0 1-.303.038zM28.62 41.025l1.42 1.44v-6.426l-1.42-1.44v6.426z" fill="#231F20"/>
    <path d="M30.04 43.286a.805.805 0 0 1-.571-.242l-1.42-1.44a.824.824 0 0 1-.235-.58V34.6a.81.81 0 0 1 1.382-.591l1.416 1.436a.843.843 0 0 1 .238.583v6.426a.822.822 0 0 1-.81.833zM41.48 48.817l-1.746-2.161V28.569l1.783-2.21H33.41l1.768 2.21v18.087l-1.73 2.16h8.032z" fill="#231F20"/>
    <path fill-rule="evenodd" clip-rule="evenodd" d="M33.447 49.638h8.032v-.027c.314.002.6-.18.733-.468a.827.827 0 0 0-.108-.871l-1.56-1.92V28.85l1.598-1.98a.827.827 0 0 0 .105-.869.805.805 0 0 0-.73-.467H33.41a.81.81 0 0 0-.725.47.83.83 0 0 0 .1.866l1.587 1.988v17.522l-1.552 1.92a.83.83 0 0 0-.103.87.81.81 0 0 0 .731.469zm6.325-1.639h-4.63l.663-.825a.837.837 0 0 0 .182-.518V28.569a.83.83 0 0 0-.182-.518l-.696-.871h4.701l-.7.87a.83.83 0 0 0-.182.52v18.086c0 .188.064.371.182.518l.662.825z" fill="#231F20"/>
    <path d="m42.937 27.798-1.42-1.44-1.783 2.211v18.087l1.745 2.16h-8.032l1.42 1.44h8.032l-1.745-2.16V30.008l1.783-2.211z" fill="#231F20"/>
    <path fill-rule="evenodd" clip-rule="evenodd" d="M34.867 51.078h8.032a.814.814 0 0 0 .73-.488.823.823 0 0 0-.105-.867l-1.564-1.92V30.3l1.601-1.98a.834.834 0 0 0-.053-1.102l-1.423-1.44a.883.883 0 0 0-.61-.237.825.825 0 0 0-.586.3l-1.78 2.21a.829.829 0 0 0-.18.518v18.087c0 .188.063.372.18.518l.663.825h-6.325a.806.806 0 0 0-.748.505.826.826 0 0 0 .176.892l1.42 1.44a.8.8 0 0 0 .572.242zm5.677-21.61v-.607l1.034-1.282.269.276-1.303 1.612zM55.417 37.885s2.964 1.044 2.964 6.287c0 3.808 1.593 4.645 1.593 4.645h-4.81s-1.064-1.24-1.064-4.695c0-2.418-.708-5.105-1.863-5.105H50.38v7.627l1.537 2.173H44.11l1.745-2.161V28.569l-1.783-2.21h8.88c3.525 0 5.64 3.135 5.64 6.383 0 2.456-.983 4.702-3.175 5.143zm-5.027-.979h1.893c1.249 0 1.703-1.715 1.703-3.585 0-1.788-.462-3.708-1.703-3.708H50.39v7.293z" fill="#231F20"/>
    <path fill-rule="evenodd" clip-rule="evenodd" d="M55.144 49.638h4.812a.801.801 0 0 0 .764-.614.838.838 0 0 0-.378-.929c-.027-.011-1.163-.775-1.163-3.934 0-3.34-1.131-5.163-2.108-6.115 1.45-.978 2.302-2.882 2.302-5.32 0-3.489-2.249-7.197-6.435-7.197h-8.866a.805.805 0 0 0-.733.468.827.827 0 0 0 .109.872l1.601 1.992v17.518l-1.563 1.92a.83.83 0 0 0-.104.869.81.81 0 0 0 .728.47h7.806a.809.809 0 0 0 .715-.447.831.831 0 0 0-.06-.85l-1.382-1.958v-6.548h1.014c.379.13 1.072 1.858 1.072 4.291 0 3.635 1.128 5.075 1.256 5.224a.802.802 0 0 0 .613.288zM58.294 48h-2.7c-.257-.514-.707-1.716-.684-3.873 0-2.053-.56-5.93-2.673-5.93h-1.855a.8.8 0 0 0-.571.24.823.823 0 0 0-.235.581v7.627c0 .172.053.34.152.48l.617.875h-4.543l.7-.837a.828.828 0 0 0 .182-.518V28.558a.82.82 0 0 0-.181-.518l-.7-.872h7.138c3.138 0 4.83 2.871 4.83 5.558 0 .887-.181 3.87-2.524 4.342a.809.809 0 0 0-.636.882c.031.321.244.594.545.699.212.084 2.422 1.105 2.422 5.512a8.873 8.873 0 0 0 .716 3.838zm-6.011-10.275H50.39a.812.812 0 0 1-.802-.818v-7.293a.812.812 0 0 1 .79-.825h1.893c1.548 0 2.514 1.735 2.514 4.525.011 3.985-1.749 4.41-2.502 4.41zm0-1.643h-1.094v-5.65h1.094c.431 0 .897 1.16.897 2.886 0 1.612-.379 2.764-.897 2.764z" fill="#231F20"/>
    <path d="m56.655 27.87-.072-.072.072.073z" fill="#231F20"/>
    <path d="M56.605 28.673a.751.751 0 0 1-.518-.215l-.064-.054-.023-.027a.886.886 0 0 1 0-1.147c.165-.137.367-.221.579-.242.217 0 .424.088.575.245.32.328.332.852.027 1.194a.838.838 0 0 1-.575.246zM51.798 36.906v-5.853h1.893c-.265-.833-.704-1.44-1.397-1.44h-1.893v7.293h1.397z" fill="#231F20"/>
    <path fill-rule="evenodd" clip-rule="evenodd" d="M50.379 37.724h1.42a.8.8 0 0 0 .577-.235.823.823 0 0 0 .24-.583v-5.04h1.067a.811.811 0 0 0 .642-.344.835.835 0 0 0 .115-.726c-.552-1.747-1.597-2.008-2.169-2.008H50.38a.812.812 0 0 0-.791.825v7.293c0 .446.351.81.79.818zm.81-7.212v-.081h.08l-.08.08z" fill="#231F20"/>
    <path d="M59.808 45.612c0-2.998-.97-4.606-1.798-5.462l-.901-.914c1.987-.576 2.896-2.714 2.896-5.055a6.866 6.866 0 0 0-1.984-4.925l-1.28-1.297a6.9 6.9 0 0 1 1.84 4.786c0 2.45-.984 4.703-3.175 5.144 0 0 2.964 1.044 2.964 6.287 0 3.816 1.574 4.645 1.574 4.645h-4.8l1.42 1.439h4.811s-1.567-.833-1.567-4.648z" fill="#231F20"/>
    <path fill-rule="evenodd" clip-rule="evenodd" d="M56.564 51.077h4.811a.801.801 0 0 0 .768-.625.842.842 0 0 0-.378-.93c-.034-.007-1.17-.774-1.17-3.933 0-3.286-1.105-5.102-2.032-6.046l-.088-.088c1.454-.983 2.317-2.898 2.317-5.297a7.633 7.633 0 0 0-2.165-5.45.71.71 0 0 0-.05-.062l-1.275-1.294a.813.813 0 0 0-1.136 0 .83.83 0 0 0 0 1.152 6.062 6.062 0 0 1 1.605 4.222c0 .887-.181 3.87-2.524 4.341a.809.809 0 0 0-.636.883c.031.321.244.594.545.699.212.084 2.422 1.105 2.422 5.512a8.874 8.874 0 0 0 .716 3.838h-3.15a.806.806 0 0 0-.747.504.826.826 0 0 0 .176.893l1.42 1.444a.823.823 0 0 0 .57.237zm.738-12.797a5.992 5.992 0 0 0-.22-.222 5.293 5.293 0 0 0 2.079-3.278c-.087 1.059-.447 2.817-1.859 3.5z" fill="#231F20"/>
    <path d="M51.798 40.457h1.711c-.318-.86-.757-1.44-1.29-1.44h-1.84v7.627l1.537 2.173H44.11l1.42 1.44h7.805l-1.537-2.173v-7.627z" fill="#231F20"/>
    <path fill-rule="evenodd" clip-rule="evenodd" d="M45.53 51.077h7.805l.008-.019a.805.805 0 0 0 .72-.445.827.827 0 0 0-.066-.852l-1.381-1.958v-6.525h.912a.803.803 0 0 0 .667-.352.827.827 0 0 0 .09-.757c-.602-1.628-1.446-1.973-2.048-1.973h-1.855a.801.801 0 0 0-.571.24.824.824 0 0 0-.235.581v7.627c0 .172.053.34.152.48l.617.875h-6.242a.806.806 0 0 0-.748.504.826.826 0 0 0 .176.893l1.427 1.443a.823.823 0 0 0 .572.238zm5.659-11.158v-.084h.083l-.083.084z" fill="#231F20"/>
    <path d="M74.597 48.817v-7.001l-2.778 3.842H67.79v-6.875h2.097l1.987 2.038v-6.444l-1.987 2.015h-2.097v-6.848h4.024l2.669 3.524v-6.71H61.466l1.768 2.211v18.087l-1.73 2.16h13.093z" fill="#231F20"/>
    <path fill-rule="evenodd" clip-rule="evenodd" d="M61.5 49.638h13.097c.215 0 .42-.087.572-.24a.824.824 0 0 0 .234-.581v-7.002a.82.82 0 0 0-.556-.767.796.796 0 0 0-.901.295l-2.536 3.505h-2.813v-5.232h.954l1.75 1.792c.23.237.578.308.882.182a.822.822 0 0 0 .502-.757v-6.445a.81.81 0 0 0-1.382-.591l-1.752 1.777h-.954v-5.208h2.824l2.42 3.205a.803.803 0 0 0 .9.273.82.82 0 0 0 .549-.776v-6.714a.823.823 0 0 0-.235-.58.8.8 0 0 0-.571-.241H61.466a.81.81 0 0 0-.728.468.83.83 0 0 0 .1.868l1.586 1.988v17.522l-1.549 1.92a.83.83 0 0 0-.103.869.81.81 0 0 0 .728.47zm12.314-1.639h-10.6l.644-.794a.837.837 0 0 0 .182-.519V28.6a.83.83 0 0 0-.182-.518l-.696-.872h10.53v3.455l-1.215-1.608a.795.795 0 0 0-.64-.319H67.81a.8.8 0 0 0-.573.238.824.824 0 0 0-.237.58v6.836c0 .453.363.821.81.821h2.097c.214 0 .42-.085.572-.238l.61-.618v2.457l-.606-.622a.812.812 0 0 0-.576-.242H67.81a.8.8 0 0 0-.573.238.824.824 0 0 0-.237.58v6.909c.01.438.359.79.791.798h4.054a.8.8 0 0 0 .651-.334l1.318-1.823v3.681z" fill="#231F20"/>
    <path d="m75.903 27.798-1.42-1.44v6.71l1.42 1.44v-6.71z" fill="#231F20"/>
    <path d="M75.903 35.313a.805.805 0 0 1-.572-.242l-1.419-1.435a.843.843 0 0 1-.239-.584v-6.69a.822.822 0 0 1 .5-.767.817.817 0 0 1 .882.176l1.408 1.447a.83.83 0 0 1 .239.58v6.71a.825.825 0 0 1-.5.767.86.86 0 0 1-.299.038zM69.21 40.223h2.083l-1.405-1.44h-2.097v6.875h1.42v-5.435z" fill="#231F20"/>
    <path fill-rule="evenodd" clip-rule="evenodd" d="M67.791 46.475h1.416a.8.8 0 0 0 .588-.242.824.824 0 0 0 .233-.598v-4.606h1.276a.817.817 0 0 0 .757-.503.83.83 0 0 0-.174-.895l-1.404-1.439a.812.812 0 0 0-.576-.242H67.81a.8.8 0 0 0-.573.238.824.824 0 0 0-.237.58v6.909c.01.438.359.79.791.798zm.806-6.79v-.08h.084l-.084.08z" fill="#231F20"/>
    <path d="M71.815 29.544H67.79v6.848h1.42v-5.408h3.694l-1.09-1.44z" fill="#231F20"/>
    <path fill-rule="evenodd" clip-rule="evenodd" d="M67.791 37.21h1.416a.811.811 0 0 0 .821-.791v-4.606h2.896a.802.802 0 0 0 .729-.454.823.823 0 0 0-.09-.863l-1.086-1.44a.799.799 0 0 0-.64-.322H67.81a.816.816 0 0 0-.81.822v6.836c0 .446.352.81.791.817zm.806-6.768v-.08h.084l-.084.08z" fill="#231F20"/>
    <path d="M73.295 42.26v-6.444l-1.42-1.44v6.445l1.42 1.44z" fill="#231F20"/>
    <path d="M73.295 43.082a.805.805 0 0 1-.572-.242l-1.42-1.44a.827.827 0 0 1-.234-.579v-6.448a.822.822 0 0 1 .493-.77.802.802 0 0 1 .889.175l1.42 1.44c.15.155.234.364.234.583v6.46a.825.825 0 0 1-.5.767.861.861 0 0 1-.31.054z" fill="#231F20"/>
    <path d="M74.597 41.815v7.002H61.504l1.42 1.439h13.093v-7.001l-1.42-1.44z" fill="#231F20"/>
    <path fill-rule="evenodd" clip-rule="evenodd" d="M62.923 51.078h13.094a.804.804 0 0 0 .59-.231.827.827 0 0 0 .246-.59v-7.002a.831.831 0 0 0-.238-.58l-1.42-1.439a.802.802 0 0 0-.881-.177.821.821 0 0 0-.5.757v6.183H61.526a.802.802 0 0 0-.757.503.838.838 0 0 0 .175.894l1.404 1.444a.83.83 0 0 0 .575.238z" fill="#231F20"/>
    <path d="M89.806 48.817v-7.163l-2.778 3.839h-2.96V28.569l1.768-2.21h-8.074l1.767 2.21v18.087l-1.73 2.16h12.007z" fill="#231F20"/>
    <path fill-rule="evenodd" clip-rule="evenodd" d="M77.8 49.638h12.007a.805.805 0 0 0 .575-.243.827.827 0 0 0 .234-.586v-7.162a.82.82 0 0 0-.556-.78.804.804 0 0 0-.905.292l-2.536 3.508h-1.741V28.85l1.586-1.98a.831.831 0 0 0 .1-.868.81.81 0 0 0-.728-.468h-8.074a.81.81 0 0 0-.728.468.83.83 0 0 0 .1.868l1.585 1.988v17.522l-1.548 1.92a.83.83 0 0 0-.103.87.81.81 0 0 0 .731.469zm11.196-1.639h-9.504l.666-.825a.832.832 0 0 0 .178-.518V28.569a.825.825 0 0 0-.178-.518l-.697-.871h4.671l-.692.87a.81.81 0 0 0-.182.52v16.907a.824.824 0 0 0 .235.58.8.8 0 0 0 .571.242h2.96c.258 0 .5-.124.651-.334l1.321-1.824V48z" fill="#231F20"/>
    <path d="m85.836 26.358-1.768 2.211v16.924h1.42V30.009l1.767-2.211-1.42-1.44z" fill="#231F20"/>
    <path fill-rule="evenodd" clip-rule="evenodd" d="M84.068 46.314h1.42a.804.804 0 0 0 .577-.238.827.827 0 0 0 .24-.583V30.3l1.57-1.984a.83.83 0 0 0-.056-1.098l-1.408-1.44a.901.901 0 0 0-.617-.237.807.807 0 0 0-.587.303l-1.764 2.207a.81.81 0 0 0-.181.518v16.924a.823.823 0 0 0 .234.58.8.8 0 0 0 .572.241zm.81-16.843v-.614l1.022-1.274.269.272-1.291 1.616z" fill="#231F20"/>
    <path d="M89.806 41.654v7.163H77.8l1.42 1.44h12.007v-7.163l-1.42-1.44z" fill="#231F20"/>
    <path fill-rule="evenodd" clip-rule="evenodd" d="M79.215 51.078h12.011a.801.801 0 0 0 .569-.243.824.824 0 0 0 .233-.579v-7.162a.824.824 0 0 0-.234-.58l-1.42-1.44a.798.798 0 0 0-.88-.178.818.818 0 0 0-.498.758V48h-11.2a.806.806 0 0 0-.751.503.826.826 0 0 0 .175.894l1.424 1.44c.151.154.357.24.571.242zm11.121-1.64.08-.084a.836.836 0 0 1-.08.085z" fill="#231F20"/>
    <path d="M104.066 48.817v-7.163l-2.779 3.839h-2.956V28.569l1.764-2.21h-8.074l1.768 2.21v18.087l-1.73 2.16h12.007z" fill="#231F20"/>
    <path fill-rule="evenodd" clip-rule="evenodd" d="M92.059 49.638h12.007a.803.803 0 0 0 .575-.243.828.828 0 0 0 .235-.586v-7.162a.82.82 0 0 0-.559-.776.803.803 0 0 0-.902.292l-2.536 3.504h-1.742V28.85l1.586-1.98a.83.83 0 0 0 .101-.867.81.81 0 0 0-.725-.469h-8.078a.81.81 0 0 0-.728.468.83.83 0 0 0 .1.868l1.59 1.988v17.522L91.43 48.3a.83.83 0 0 0-.103.87.81.81 0 0 0 .732.469zm11.2-1.639h-9.504l.662-.825a.837.837 0 0 0 .182-.518V28.569a.83.83 0 0 0-.182-.518l-.697-.871h4.698l-.715.87a.83.83 0 0 0-.182.52v16.907c0 .454.363.822.81.822h2.96a.806.806 0 0 0 .651-.334l1.317-1.824V48z" fill="#231F20"/>
    <path d="M98.331 28.57v16.923h1.416V30.009l1.767-2.211-1.415-1.44h-.004l-1.764 2.211z" fill="#231F20"/>
    <path fill-rule="evenodd" clip-rule="evenodd" d="M98.331 46.314h1.416c.447 0 .81-.368.81-.822V30.3l1.586-1.984a.83.83 0 0 0-.053-1.098l-1.42-1.44a.877.877 0 0 0-.613-.237.803.803 0 0 0-.587.303l-1.767 2.207a.829.829 0 0 0-.182.518v16.924c0 .453.363.82.81.82zm.806-16.843v-.614l1.022-1.274.269.272-1.29 1.616z" fill="#231F20"/>
    <path d="M104.066 41.654v7.163H92.059l1.42 1.44h12.006v-7.163l-1.419-1.44z" fill="#231F20"/>
    <path fill-rule="evenodd" clip-rule="evenodd" d="M93.497 51.078h11.988c.22.005.433-.081.589-.238a.826.826 0 0 0 .24-.595v-7.163a.844.844 0 0 0-.238-.583l-1.416-1.436a.817.817 0 0 0-.886-.176.82.82 0 0 0-.496.767V48h-11.2a.806.806 0 0 0-.748.504.826.826 0 0 0 .176.893l1.42 1.444a.823.823 0 0 0 .571.237z" fill="#231F20"/>
    <path d="m114.366 48.817-1.745-2.161V28.569l1.782-2.21h-8.104l1.768 2.21v18.087l-1.73 2.16h8.029z" fill="#231F20"/>
    <path fill-rule="evenodd" clip-rule="evenodd" d="M106.333 49.638h8.033v-.027a.81.81 0 0 0 .731-.468.831.831 0 0 0-.103-.871l-1.563-1.92V28.85l1.601-1.98a.828.828 0 0 0 .104-.87.806.806 0 0 0-.733-.466h-8.104a.81.81 0 0 0-.728.468.83.83 0 0 0 .1.868l1.586 1.988v17.522l-1.548 1.92a.829.829 0 0 0-.104.869.808.808 0 0 0 .728.47zm6.329-1.639h-4.629l.658-.825a.839.839 0 0 0 .182-.518V28.569a.826.826 0 0 0-.182-.518l-.696-.871h4.701l-.7.87a.825.825 0 0 0-.182.52v18.086c0 .188.065.371.182.518l.666.825z" fill="#231F20"/>
    <path d="m114.04 30.009 1.783-2.211-1.42-1.44-1.782 2.211v18.087l1.745 2.16h-8.029l1.416 1.44h8.032l-1.745-2.16V30.008z" fill="#231F20"/>
    <path fill-rule="evenodd" clip-rule="evenodd" d="M107.756 51.078h8.029v-.016a.806.806 0 0 0 .733-.468.827.827 0 0 0-.108-.871l-1.56-1.92V30.3l1.598-1.98a.835.835 0 0 0-.053-1.102l-1.416-1.44a.951.951 0 0 0-.613-.237.809.809 0 0 0-.587.3l-1.783 2.21a.825.825 0 0 0-.182.518v18.087c0 .188.064.372.182.518l.666.825h-6.329a.807.807 0 0 0-.748.505.826.826 0 0 0 .177.892l1.419 1.444a.832.832 0 0 0 .575.237zm5.675-21.607v-.61l1.033-1.278.269.272-1.302 1.616z" fill="#231F20"/>
    <path d="m18.223 48.817 1.745-2.161V28.569l-1.783-2.21h12.904v6.709l-2.65-3.524h-3.93v7.07h2.124l1.988-2.015v6.426l-1.988-2.015H24.51v7.646l1.756 2.16h-8.043z" fill="#fff"/>
    <path fill-rule="evenodd" clip-rule="evenodd" d="M18.223 49.285h8.047a.458.458 0 0 0 .428-.273.477.477 0 0 0-.06-.499l-1.655-2.03v-7.01h1.457l1.855 1.882a.46.46 0 0 0 .504.1.468.468 0 0 0 .287-.434v-6.426a.472.472 0 0 0-.287-.433.454.454 0 0 0-.492.115l-1.855 1.88h-1.469v-6.14h3.225l2.514 3.335c.12.16.327.224.515.16a.468.468 0 0 0 .314-.444v-6.706c0-.26-.207-.47-.462-.472H18.185a.461.461 0 0 0-.42.269.474.474 0 0 0 .064.499l1.677 2.076v17.753l-1.64 2.034a.462.462 0 0 0-.06.495c.075.164.238.27.416.269zm7.067-.921H19.2l1.127-1.413a.468.468 0 0 0 .102-.295V28.569a.46.46 0 0 0-.102-.296l-1.166-1.443h11.477v4.864l-1.82-2.422a.463.463 0 0 0-.379-.185h-3.93a.465.465 0 0 0-.46.468v7.06a.472.472 0 0 0 .133.333.458.458 0 0 0 .328.139h2.123a.474.474 0 0 0 .33-.139l1.196-1.217v4.161l-1.196-1.217a.47.47 0 0 0-.33-.134H24.51a.455.455 0 0 0-.328.136.468.468 0 0 0-.134.333v7.66a.453.453 0 0 0 .106.3l1.136 1.394z" fill="#231F20"/>
    <path d="m41.48 48.817-1.746-2.161V28.569l1.783-2.21H33.41l1.768 2.21v18.087l-1.73 2.16h8.032z" fill="#fff"/>
    <path fill-rule="evenodd" clip-rule="evenodd" d="M33.447 49.285h8.032v.004c.18 0 .343-.105.42-.27a.474.474 0 0 0-.064-.498l-1.639-2.034V28.734l1.677-2.076a.473.473 0 0 0 .063-.499.461.461 0 0 0-.419-.27H33.41a.47.47 0 0 0-.356.764l1.662 2.081v17.753l-1.628 2.034a.478.478 0 0 0-.056.495.458.458 0 0 0 .416.269zm7.056-.921H34.42l1.097-1.417a.453.453 0 0 0 .106-.291V28.569a.472.472 0 0 0-.105-.296l-1.136-1.443h6.147l-1.162 1.444a.465.465 0 0 0-.106.295v18.102c0 .108.038.212.106.296l1.136 1.397z" fill="#231F20"/>
    <path fill-rule="evenodd" clip-rule="evenodd" d="M55.417 37.885s2.964 1.044 2.964 6.287c0 3.808 1.593 4.645 1.593 4.645h-4.81s-1.064-1.24-1.064-4.695c0-2.418-.708-5.105-1.863-5.105H50.38v7.627l1.537 2.173H44.11l1.745-2.161V28.569l-1.783-2.21h8.88c3.525 0 5.64 3.135 5.64 6.383 0 2.456-.983 4.702-3.175 5.143zm-5.027-.979h1.893c1.249 0 1.703-1.715 1.703-3.585 0-1.788-.462-3.708-1.703-3.708H50.39v7.293z" fill="#fff"/>
    <path fill-rule="evenodd" clip-rule="evenodd" d="M55.144 49.285h4.812a.456.456 0 0 0 .439-.361.471.471 0 0 0-.22-.53c-.011 0-1.332-.806-1.332-4.222 0-3.654-1.378-5.408-2.347-6.176 1.59-.817 2.543-2.733 2.543-5.258 0-3.317-2.138-6.848-6.102-6.848h-8.865a.461.461 0 0 0-.418.269.473.473 0 0 0 .063.499l1.676 2.076V46.49l-1.639 2.035a.474.474 0 0 0-.063.498c.077.165.24.27.42.27h7.8a.46.46 0 0 0 .414-.253.474.474 0 0 0-.035-.488l-1.446-2.05v-7.009h1.374c.644 0 1.4 2.069 1.4 4.64 0 3.518 1.1 4.898 1.172 4.988l.002.003a.463.463 0 0 0 .352.16zm3.744-.921H55.39c-.253-.442-.848-1.72-.829-4.238 0-2.242-.617-5.577-2.324-5.577h-1.87a.465.465 0 0 0-.461.468v7.662c0 .097.03.193.087.272l1.01 1.432h-5.928l1.136-1.397a.471.471 0 0 0 .106-.296V28.604a.464.464 0 0 0-.106-.296l-1.166-1.443h7.908c3.361 0 5.178 3.044 5.178 5.907 0 2-.738 4.272-2.805 4.687a.456.456 0 0 0-.379.503c.026.18.151.33.322.383.216.085 2.65 1.144 2.65 5.843 0 2.157.496 3.442.969 4.176zM52.283 37.39H50.39a.465.465 0 0 1-.462-.469v-7.293c0-.258.207-.468.462-.468h1.893c1.597 0 2.169 2.157 2.169 4.176 0 2.56-.791 4.038-2.17 4.038v.016zm0-.94h-1.439V30.1h1.439c.863 0 1.241 1.732 1.241 3.236 0 1.505-.325 3.113-1.241 3.113z" fill="#231F20"/>
    <path d="M74.597 48.817v-7.001l-2.778 3.842H67.79v-6.875h2.097l1.987 2.038v-6.444l-1.987 2.015h-2.097v-6.848h4.024l2.669 3.524v-6.71H61.466l1.768 2.211v18.087l-1.73 2.16h13.093z" fill="#fff"/>
    <path fill-rule="evenodd" clip-rule="evenodd" d="M61.5 49.285h13.097a.458.458 0 0 0 .337-.132c.09-.088.14-.21.14-.336v-7.002a.472.472 0 0 0-.318-.445.45.45 0 0 0-.515.169l-2.65 3.646h-3.334v-5.93h1.442l1.855 1.896c.13.136.33.177.503.104a.476.476 0 0 0 .288-.434v-6.444a.476.476 0 0 0-.288-.434.461.461 0 0 0-.503.1l-1.855 1.88h-1.442v-5.907h3.338l2.525 3.34a.45.45 0 0 0 .515.157.468.468 0 0 0 .314-.445v-6.706a.475.475 0 0 0-.136-.334.462.462 0 0 0-.33-.138H61.467a.47.47 0 0 0-.36.764l1.662 2.08v17.749l-1.624 2.034a.473.473 0 0 0-.063.499c.076.164.24.27.419.269zm12.62-.921H62.458l1.135-1.417a.453.453 0 0 0 .106-.291V28.569a.472.472 0 0 0-.106-.296l-1.158-1.443h11.598v4.871l-1.836-2.43a.467.467 0 0 0-.378-.184H67.79a.465.465 0 0 0-.462.468v6.837a.472.472 0 0 0 .134.333.458.458 0 0 0 .328.139h2.097c.122 0 .24-.05.326-.138l1.2-1.217v4.157l-1.2-1.228a.451.451 0 0 0-.326-.139h-2.097a.465.465 0 0 0-.462.469v6.89c0 .258.207.468.462.468H71.8c.149 0 .29-.07.378-.192l1.942-2.687v5.117z" fill="#231F20"/>
    <path d="M89.806 48.817v-7.163l-2.778 3.839h-2.96V28.569l1.768-2.21h-8.074l1.767 2.21v18.087l-1.73 2.16h12.007z" fill="#fff"/>
    <path fill-rule="evenodd" clip-rule="evenodd" d="M77.8 49.285h12.007a.458.458 0 0 0 .338-.13.471.471 0 0 0 .142-.338v-7.163a.476.476 0 0 0-.318-.449.462.462 0 0 0-.514.169l-2.65 3.65h-2.271v-16.29l1.661-2.08a.47.47 0 0 0-.36-.764h-8.073a.47.47 0 0 0-.36.764l1.662 2.08v17.753L77.44 48.52a.469.469 0 0 0 .36.764zm11.533-.921H78.77l1.124-1.417a.473.473 0 0 0 .102-.291V28.569a.488.488 0 0 0-.102-.296l-1.159-1.443h6.099l-1.136 1.444a.472.472 0 0 0-.106.295v16.927c0 .259.207.469.462.469h2.96c.15.002.29-.07.378-.192l1.942-2.687v5.278z" fill="#231F20"/>
    <path d="M104.066 48.817v-7.163l-2.779 3.839h-2.956V28.569l1.764-2.21h-8.074l1.768 2.21v18.087l-1.73 2.16h12.007z" fill="#fff"/>
    <path fill-rule="evenodd" clip-rule="evenodd" d="M92.059 49.285h12.007c.126.006.25-.04.342-.128a.473.473 0 0 0 .146-.34v-7.163a.472.472 0 0 0-.322-.445.455.455 0 0 0-.515.169l-2.649 3.646h-2.271v-16.29l1.658-2.084a.471.471 0 0 0 .06-.495.465.465 0 0 0-.416-.269h-8.078a.465.465 0 0 0-.417.27.477.477 0 0 0 .057.498l1.666 2.08v17.749l-1.628 2.034a.478.478 0 0 0-.057.498.465.465 0 0 0 .417.27zm11.545-.921H93.028l1.113-1.417a.472.472 0 0 0 .102-.291V28.569a.488.488 0 0 0-.102-.295l-1.155-1.444h6.132l-1.154 1.444a.473.473 0 0 0-.106.295v16.927c0 .125.049.245.136.333a.459.459 0 0 0 .33.136h2.96c.149.002.29-.07.378-.192l1.942-2.687v5.278z" fill="#231F20"/>
    <path d="m114.366 48.817-1.745-2.161V28.569l1.782-2.21h-8.104l1.768 2.21v18.087l-1.73 2.16h8.029z" fill="#fff"/>
    <path fill-rule="evenodd" clip-rule="evenodd" d="M106.333 49.285h8.033v.004a.46.46 0 0 0 .421-.268.474.474 0 0 0-.062-.5l-1.639-2.034V28.734l1.677-2.076a.478.478 0 0 0 .061-.5.474.474 0 0 0-.421-.268h-8.104a.47.47 0 0 0-.359.764l1.661 2.08v17.749l-1.624 2.034a.473.473 0 0 0-.062.499.46.46 0 0 0 .418.269zm7.06-.921h-6.087l1.117-1.417a.456.456 0 0 0 .106-.291V28.569a.474.474 0 0 0-.106-.296l-1.155-1.443h6.155l-1.166 1.444a.467.467 0 0 0-.106.295v18.102a.474.474 0 0 0 .106.296l1.136 1.397z" fill="#231F20"/>
    <path fill-rule="evenodd" clip-rule="evenodd" d="M38.417 61.879C40.915 70.665 55.954 75.962 67 75.962s26.088-5.293 28.583-14.083c1.692 2.191 4.83 3.938 9.02 3.938 10.921 0 15.001-7.835 18.944-15.406l.017-.032c2.824-5.435 5.292-9.692 9.172-10.99.543-.18.911-.695.911-1.276 0-.58-.368-1.095-.911-1.276-3.876-1.294-6.348-5.55-9.176-10.99-3.94-7.588-8.021-15.433-18.957-15.433-4.19 0-7.328 1.746-9.02 3.938C93.088 5.562 78.046.269 67 .269S40.915 5.562 38.417 14.352c-1.692-2.192-4.83-3.938-9.02-3.938-10.933 0-15.01 7.841-18.958 15.431l-.003.007c-2.824 5.435-5.292 9.692-9.172 10.985a1.346 1.346 0 0 0-.908 1.278c0 .58.366 1.095.908 1.278 3.876 1.294 6.348 5.55 9.176 10.99l.014.027c3.94 7.569 8.02 15.407 18.943 15.407 4.19 0 7.328-1.747 9.02-3.938zm1.329-2.549v-.265a.994.994 0 0 0 .015-.111c.004-.012.026-.13.026-.188.283-1.302 1.485-2.18 2.792-2.04 1.307.14 2.302 1.252 2.311 2.585a2.587 2.587 0 0 1-1.4 2.303c-.349.182-.6.51-.685.898-.087.387 0 .793.238 1.11 1.04 1.4 2.593 2.717 4.652 3.934a9.037 9.037 0 0 0 4.327 1.07c2.214 0 4.372-.694 6.662-1.462 2.456-.81 5.254-1.727 8.327-1.727 3.074 0 5.86.917 8.328 1.731 2.283.752 4.44 1.459 6.655 1.459a9.048 9.048 0 0 0 4.349-1.071 15.524 15.524 0 0 0 4.633-3.92c.233-.319.317-.725.231-1.113a1.333 1.333 0 0 0-.685-.894 2.591 2.591 0 0 1-1.397-2.303c.01-1.332 1.004-2.445 2.311-2.585 1.307-.14 2.509.739 2.792 2.04.007.058.026.188.026.188a.994.994 0 0 0 0 .104v.257c0 9.124-16.152 14.947-27.254 14.947S39.746 68.454 39.746 59.33zM67 63.744c3.35 0 6.269.96 8.846 1.812 3.589 1.174 6.814 1.996 9.702.51a14.425 14.425 0 0 0 3.838-3.136 4.32 4.32 0 0 1-1.911-4.09 4.289 4.289 0 0 1 2.76-3.559 4.196 4.196 0 0 1 4.371.92c.88-1.787 2.856-2.726 4.773-2.269 1.918.457 3.273 2.191 3.275 4.189a4.27 4.27 0 0 1-.598 2.192 8.624 8.624 0 0 0 2.547.357c7.87 0 10.928-5.88 14.468-12.69 1.726-3.328 3.679-7.09 6.412-9.86-2.733-2.776-4.686-6.526-6.412-9.865-3.54-6.806-6.598-12.667-14.468-12.667-.862-.011-1.72.11-2.547.357.393.661.6 1.42.598 2.192-.002 1.997-1.357 3.731-3.275 4.188-1.918.458-3.893-.482-4.773-2.27a4.195 4.195 0 0 1-4.61.835 4.302 4.302 0 0 1-2.555-3.978 4.28 4.28 0 0 1 1.941-3.604 14.536 14.536 0 0 0-3.88-3.163 7.485 7.485 0 0 0-3.512-.84c-1.953 0-3.986.667-6.14 1.377l-.25.08c-2.519.815-5.357 1.732-8.6 1.732-3.247 0-6.088-.92-8.606-1.734l-.24-.078c-3.589-1.178-6.814-2-9.702-.514a14.48 14.48 0 0 0-3.838 3.14 4.283 4.283 0 0 1 1.945 3.604 4.301 4.301 0 0 1-2.564 3.959 4.196 4.196 0 0 1-4.597-.834c-.88 1.787-2.856 2.727-4.773 2.27-1.918-.458-3.274-2.192-3.275-4.19a4.268 4.268 0 0 1 .594-2.191 8.462 8.462 0 0 0-2.543-.357c-7.87 0-10.929 5.88-14.468 12.685-1.726 3.332-3.68 7.09-6.412 9.865 2.733 2.775 4.686 6.525 6.412 9.86 3.54 6.81 6.598 12.69 14.468 12.69a8.63 8.63 0 0 0 2.547-.356 4.267 4.267 0 0 1-.598-2.192c.001-1.998 1.357-3.732 3.275-4.189 1.917-.457 3.893.482 4.773 2.27a4.2 4.2 0 0 1 4.591-.83 4.305 4.305 0 0 1 2.57 3.947 4.283 4.283 0 0 1-1.942 3.604 14.526 14.526 0 0 0 3.88 3.159 7.425 7.425 0 0 0 3.513.844c1.953 0 3.986-.668 6.14-1.378 2.581-.852 5.5-1.812 8.85-1.812v.008zm37.588.392c-4.97 0-8.165-2.74-8.706-5.5l-.019-.15a2.853 2.853 0 0 1-.034-.384 2.627 2.627 0 0 1 1.26-2.35 2.551 2.551 0 0 1 2.639 0 2.625 2.625 0 0 1 1.26 2.35 2.558 2.558 0 0 1-.515 1.554 1.36 1.36 0 0 0-.222 1.18c.113.408.409.737.798.89a9.783 9.783 0 0 0 3.558.613c8.88 0 12.469-6.905 15.94-13.588 1.722-3.316 3.694-7.078 6.344-9.684a1.35 1.35 0 0 0 0-1.919c-2.672-2.602-4.625-6.368-6.329-9.684-3.471-6.683-7.06-13.592-15.94-13.592a9.743 9.743 0 0 0-3.554.614 1.354 1.354 0 0 0-.61 2.084c.337.448.518.996.515 1.559-.053 1.405-1.192 2.517-2.58 2.517-1.387 0-2.526-1.111-2.58-2.517.004-.129.015-.257.035-.384l.004-.024.004-.02.008-.037c.016-.078.033-.158.033-.238.553-2.606 3.744-5.323 8.706-5.323 9.914 0 13.431 6.736 17.485 14.536 2.827 5.4 5.307 9.718 9.262 11.484-3.978 1.758-6.469 6.076-9.278 11.477-4.054 7.8-7.555 14.536-17.484 14.536zM2.65 38.116c3.97 1.753 6.469 6.072 9.277 11.476 4.055 7.8 7.571 14.536 17.485 14.536 4.962 0 8.153-2.718 8.706-5.324 0-.08.016-.157.032-.234l.011-.056a2.835 2.835 0 0 0 .04-.416c-.053-1.406-1.192-2.518-2.58-2.518-1.387 0-2.526 1.112-2.579 2.518a2.567 2.567 0 0 0 .515 1.554c.254.337.337.775.223 1.182a1.333 1.333 0 0 1-.802.887 9.748 9.748 0 0 1-3.555.615c-8.878 0-12.467-6.906-15.937-13.583l-.003-.005-.001-.003c-1.722-3.316-3.675-7.076-6.347-9.682a1.353 1.353 0 0 1 0-1.919c2.641-2.594 4.592-6.35 6.313-9.662l.009-.018c3.471-6.683 7.06-13.592 15.94-13.592a9.783 9.783 0 0 1 3.558.614c.39.153.685.483.798.891.112.408.028.846-.227 1.182-.33.442-.51.98-.51 1.535a2.627 2.627 0 0 0 1.26 2.35 2.55 2.55 0 0 0 2.638 0 2.627 2.627 0 0 0 1.26-2.35 2.974 2.974 0 0 0-.033-.384l-.023-.145c-.541-2.756-3.736-5.497-8.706-5.497-9.929 0-13.43 6.736-17.484 14.536-2.824 5.435-5.323 9.753-9.278 11.511zM86.305 8.662a9.036 9.036 0 0 0-4.311-1.048c-2.165 0-4.276.676-6.524 1.394l-.154.05c-2.456.81-5.254 1.727-8.327 1.727-3.074 0-5.86-.917-8.328-1.731-2.283-.749-4.44-1.455-6.655-1.455a9.048 9.048 0 0 0-4.349 1.071 15.467 15.467 0 0 0-4.618 3.911 1.374 1.374 0 0 0-.23 1.11c.083.387.335.715.684.894a2.627 2.627 0 0 1 1.318 2.962 2.584 2.584 0 0 1-2.545 1.975 2.587 2.587 0 0 1-2.475-2.066c-.014-.031-.015-.073-.016-.111 0-.032-.002-.061-.01-.077l-.014-.027c-.005-.013-.005-.029-.005-.08v-.254c0-9.124 16.136-14.95 27.254-14.95 11.117 0 27.254 5.826 27.24 14.946v.298c0 .03.002.058 0 .063a1.08 1.08 0 0 0-.027.188c-.283 1.302-1.485 2.18-2.792 2.04-1.307-.14-2.302-1.252-2.311-2.585.002-.97.538-1.86 1.39-2.303.354-.18.61-.513.696-.906a1.366 1.366 0 0 0-.239-1.101c-1.042-1.408-2.593-2.72-4.652-3.935zM67 72.5a41.647 41.647 0 0 1-8.222-.876 1.342 1.342 0 0 1-1.06-1.246 1.347 1.347 0 0 1 .92-1.356l.576-.184c2.445-.806 4.977-1.64 7.786-1.64 2.809 0 5.341.834 7.79 1.64l.572.184c.575.187.953.744.92 1.356a1.342 1.342 0 0 1-1.06 1.246c-2.706.564-5.46.857-8.222.876zm6.567-2.284c-4.344.779-8.79.779-13.134 0 2.104-.687 4.277-1.328 6.567-1.328s4.463.64 6.567 1.328zM67 9.032c-2.809 0-5.341-.833-7.79-1.64l-.572-.187a1.343 1.343 0 0 1-.924-1.355 1.338 1.338 0 0 1 1.064-1.244 39.059 39.059 0 0 1 16.444 0c.593.12 1.03.632 1.064 1.244a1.343 1.343 0 0 1-.924 1.355l-.576.188C72.341 8.199 69.81 9.032 67 9.032zm0-1.69c-2.29 0-4.463-.64-6.568-1.327 4.345-.78 8.79-.78 13.135 0-2.104.687-4.277 1.328-6.567 1.328z" fill="#231F20"/>
    <path d="M68.264 56.083h.629l.927 1.689.909-1.69h.67v.07c-.152.03-.182.096-.182.203v.173l.125 2.019a.172.172 0 0 0 .155.18v.07h-.704v-.07a.2.2 0 0 0 .129-.234l-.13-1.873-.957 1.797H69.7l-.984-1.793-.11 1.785c0 .2 0 .272.129.318v.07h-.598v-.07a.181.181 0 0 0 .124-.064.186.186 0 0 0 .042-.135l.129-2.092c0-.12 0-.257-.167-.284v-.07z" fill="#000"/>
    <path fill-rule="evenodd" clip-rule="evenodd" d="M73.477 55.99h-.156l-1.173 2.503c-.076.158-.136.208-.227.234v.054h.674v-.069c-.087-.02-.118-.061-.118-.119a.438.438 0 0 1 .046-.161l.189-.384h1.287l.197.403a.468.468 0 0 1 .053.173c0 .057-.034.103-.117.103v.07h.757v-.07c-.127-.05-.182-.164-.254-.311-.014-.03-.03-.06-.046-.091l-1.112-2.334zm-.606 1.732.492-1.044.5 1.044h-.992z" fill="#000"/>
    <path d="M75.354 56.083h1.159c.586 0 .813.357.813.706 0 .468-.314.68-.757.73.42.198.75.549.928.982.04.09.1.167.178.226v.07h-.757v-.07a.119.119 0 0 0 .102-.126 1.217 1.217 0 0 0-.379-.676 1.824 1.824 0 0 0-.583-.384v-.264h.121c.315 0 .712-.05.712-.43 0-.273-.14-.438-.598-.438h-.379v2.153c0 .031.023.165.144.173v.07h-.696v-.078a.187.187 0 0 0 .14-.172v-2.219a.176.176 0 0 0-.14-.176l-.008-.077zM53.695 56.087h2.328l.193.491h-.084c-.125-.142-.223-.177-.518-.177h-.53v2.127a.195.195 0 0 0 .147.2v.069h-.723v-.07a.176.176 0 0 0 .137-.172V56.4h-.56a.59.59 0 0 0-.508.185h-.087l.205-.5zM56.7 56.087h1.158c.587 0 .814.353.814.702 0 .468-.314.68-.757.73.42.199.751.55.928.986a.56.56 0 0 0 .181.222v.07h-.757v-.07a.119.119 0 0 0 .102-.126 1.229 1.229 0 0 0-.378-.676 1.827 1.827 0 0 0-.583-.384v-.26h.129c.314 0 .711-.054.711-.434 0-.273-.14-.438-.598-.438h-.378v2.153c0 .031.023.166.144.173v.07h-.697v-.078a.187.187 0 0 0 .14-.172v-2.219a.18.18 0 0 0-.14-.176l-.019-.073z" fill="#000"/>
    <path fill-rule="evenodd" clip-rule="evenodd" d="M60.83 55.994h-.155l-1.181 2.503c-.076.154-.137.203-.227.23v.054h.677v-.069c-.087-.02-.117-.062-.117-.119a.455.455 0 0 1 .045-.161l.19-.384h1.29l.197.407c.029.052.047.11.053.169 0 .057-.034.103-.117.103v.07h.757v-.07c-.129-.052-.184-.165-.258-.319l-.041-.084-1.113-2.33zm-.602 1.728.488-1.044.5 1.044h-.988zM63.51 56.087h-1.052l-.012.076c.106.027.152.085.152.261v2.135a.157.157 0 0 1-.14.169v.069h1.222c.362.027.718-.106.976-.365a1.28 1.28 0 0 0 .368-.986c0-.484-.185-1.36-1.514-1.36zm-.48 2.395v-2.07h.427c.685 0 1.105.316 1.105 1.037 0 1.033-.882 1.033-1.302 1.033h-.23z" fill="#000"/>
    <path d="M65.512 56.087h1.923l.16.495h-.088a.474.474 0 0 0-.447-.177h-.984v.726h1.136c.117 0 .208-.039.235-.158h.064v.603h-.076c-.034-.119-.113-.142-.23-.142h-1.117v1.033h.976a.564.564 0 0 0 .5-.196h.08l-.152.514h-1.968v-.057a.157.157 0 0 0 .136-.154V56.4c0-.142-.038-.222-.148-.25v-.064zM78.167 56.083h.704v.069a.192.192 0 0 0-.14.2v.84l.863-.84a.23.23 0 0 0 .083-.139c0-.03-.023-.053-.06-.073v-.069h.722v.07c-.14.065-.269.156-.378.268l-.78.768c.213.089.405.219.568.384.477.48.522 1.117.757 1.174v.07h-.757v-.078a.122.122 0 0 0 .106-.126 1.777 1.777 0 0 0-.48-.906 2.001 2.001 0 0 0-.648-.419v1.267c-.002.09.06.168.147.184v.07h-.704v-.07a.165.165 0 0 0 .137-.172v-2.192a.192.192 0 0 0-.144-.211l.004-.07z" fill="#000"/>
    <path d="M57.775 19.576a2.935 2.935 0 0 1 .856-2.122c.559-.56 1.32-.862 2.104-.837.246 0 .49.027.73.08v.88a3.547 3.547 0 0 0-.67-.066 2.028 2.028 0 0 0-1.75 1.047 2.086 2.086 0 0 0 .019 2.061 2.027 2.027 0 0 0 1.77 1.014c.212 0 .424-.023.632-.065v.871a3.03 3.03 0 0 1-.757.093 2.848 2.848 0 0 1-2.087-.845 2.93 2.93 0 0 1-.847-2.111z" fill="#010101"/>
    <path fill-rule="evenodd" clip-rule="evenodd" d="M64.96 16.505h-.091l-2.586 5.973h1.026l.243-.63h2.717l.246.63h1.03l-2.585-5.973zm-.05 1.808 1.064 2.752h-2.12l1.056-2.752z" fill="#010101"/>
    <path d="M68.03 22.424v-.821c.248.098.512.151.78.157a.87.87 0 0 0 .691-.217.896.896 0 0 0 .296-.67c0-.499-.337-.821-.757-1.151-.42-.33-1.048-.73-1.048-1.609 0-.963.689-1.535 1.688-1.535.2.003.4.029.594.077v.821a2.21 2.21 0 0 0-.514-.069c-.53 0-.86.25-.86.622s.303.564.697.864c.605.464 1.113.955 1.113 1.884.02.492-.165.97-.511 1.316a1.701 1.701 0 0 1-1.306.496 2.22 2.22 0 0 1-.863-.165z" fill="#010101"/>
    <path fill-rule="evenodd" clip-rule="evenodd" d="M73.711 16.505h-.09l-2.59 5.973h1.022l.246-.63h2.718l.246.63h1.034l-2.586-5.973zm-.049 1.808 1.064 2.752h-2.12l1.056-2.752z" fill="#010101"/>
    <path d="M56.33 19.438c-1.127.184-2.27.232-3.408.142l-3.406-.142v-.039l3.406-.142a14.016 14.016 0 0 1 3.407.142v.039zM83.496 19.438l-3.406.142c-1.138.09-2.281.042-3.407-.142v-.039a13.986 13.986 0 0 1 3.407-.142l3.406.142v.039z" fill="#010101"/>
</svg>
